{
  "accessors": [
    {
      "bufferView": 2,
      "componentType": 5126,
      "count": 65532,
      "max": [
        46.16079330444336,
        -1.6654419898986816,
        214.69163513183594
      ],
      "min": [
        -47.36661911010742,
        -62.38731002807617,
        3.765894889831543
      ],
      "type": "VEC3"
    },
    {
      "bufferView": 2,
      "byteOffset": 786384,
      "componentType": 5126,
      "count": 65532,
      "max": [
        0.9999727010726929,
        0.999897837638855,
        0.9999473094940186
      ],
      "min": [
        -0.9999897480010986,
        -0.9999991655349731,
        -0.9999486804008484
      ],
      "type": "VEC3"
    },
    {
      "bufferView": 1,
      "componentType": 5126,
      "count": 65532,
      "max": [
        0.9925180077552795,
        0.9784950017929077
      ],
      "min": [
        0.0019920000340789557,
        0.001981999957934022
      ],
      "type": "VEC2"
    },
    {
      "bufferView": 0,
      "componentType": 5125,
      "count": 353268,
      "type": "SCALAR"
    },
    {
      "bufferView": 2,
      "byteOffset": 1572768,
      "componentType": 5126,
      "count": 65532,
      "max": [
        42.9725456237793,
        -1.2877110242843628,
        214.05381774902344
      ],
      "min": [
        -47.36661911010742,
        -62.362648010253906,
        4.283413887023926
      ],
      "type": "VEC3"
    },
    {
      "bufferView": 2,
      "byteOffset": 2359152,
      "componentType": 5126,
      "count": 65532,
      "max": [
        0.9999983310699463,
        0.9993579387664795,
        0.9998959302902222
      ],
      "min": [
        -0.9999998807907104,
        -0.9999991655349731,
        -0.9949446320533752
      ],
      "type": "VEC3"
    },
    {
      "bufferView": 1,
      "byteOffset": 524256,
      "componentType": 5126,
      "count": 65532,
      "max": [
        0.9980080127716064,
        0.9896810054779053
      ],
      "min": [
        0.002240000059828162,
        0.001981999957934022
      ],
      "type": "VEC2"
    },
    {
      "bufferView": 0,
      "byteOffset": 1413072,
      "componentType": 5125,
      "count": 350604,
      "type": "SCALAR"
    },
    {
      "bufferView": 2,
      "byteOffset": 3145536,
      "componentType": 5126,
      "count": 65532,
      "max": [
        46.64377212524414,
        -0.5280060172080994,
        212.2559814453125
      ],
      "min": [
        -47.10109329223633,
        -61.6685676574707,
        3.8204870223999023
      ],
      "type": "VEC3"
    },
    {
      "bufferView": 2,
      "byteOffset": 3931920,
      "componentType": 5126,
      "count": 65532,
      "max": [
        0.9999997615814209,
        0.9999991655349731,
        0.9992436766624451
      ],
      "min": [
        -0.9999995231628418,
        -0.9998992085456848,
        -0.9999486804008484
      ],
      "type": "VEC3"
    },
    {
      "bufferView": 1,
      "byteOffset": 1048512,
      "componentType": 5126,
      "count": 65532,
      "max": [
        0.9980080127716064,
        0.9844650030136108
      ],
      "min": [
        0.0019920000340789557,
        0.006622000131756067
      ],
      "type": "VEC2"
    },
    {
      "bufferView": 0,
      "byteOffset": 2815488,
      "componentType": 5125,
      "count": 344403,
      "type": "SCALAR"
    },
    {
      "bufferView": 2,
      "byteOffset": 4718304,
      "componentType": 5126,
      "count": 55068,
      "max": [
        46.675716400146484,
        -0.5280060172080994,
        214.69163513183594
      ],
      "min": [
        -47.28897476196289,
        -62.17710494995117,
        3.765894889831543
      ],
      "type": "VEC3"
    },
    {
      "bufferView": 2,
      "byteOffset": 5379120,
      "componentType": 5126,
      "count": 55068,
      "max": [
        0.9999997019767761,
        0.9999978542327881,
        0.9999473094940186
      ],
      "min": [
        -0.9999995231628418,
        -0.9998727440834045,
        -0.9999933838844299
      ],
      "type": "VEC3"
    },
    {
      "bufferView": 1,
      "byteOffset": 1572768,
      "componentType": 5126,
      "count": 55068,
      "max": [
        0.9980080127716064,
        0.9931989908218384
      ],
      "min": [
        0.0019920000340789557,
        0.001981999957934022
      ],
      "type": "VEC2"
    },
    {
      "bufferView": 0,
      "byteOffset": 4193100,
      "componentType": 5125,
      "count": 234105,
      "type": "SCALAR"
    }
  ],
  "asset": {
    "extras": {
      "author": "Connections XR (https://sketchfab.com/connectionsxr)",
      "license": "CC-BY-4.0 (http://creativecommons.org/licenses/by/4.0/)",
      "source": "https://sketchfab.com/3d-models/egyptian-head-3fb673e1a8314a4bab529f61726e53ce",
      "title": "Egyptian Head"
    },
    "generator": "Sketchfab-15.10.0",
    "version": "2.0"
  },
  "bufferViews": [
    {
      "buffer": 0,
      "byteLength": 5129520,
      "name": "floatBufferViews",
      "target": 34963
    },
    {
      "buffer": 0,
      "byteLength": 2013312,
      "byteOffset": 5129520,
      "byteStride": 8,
      "name": "floatBufferViews",
      "target": 34962
    },
    {
      "buffer": 0,
      "byteLength": 6039936,
      "byteOffset": 7142832,
      "byteStride": 12,
      "name": "floatBufferViews",
      "target": 34962
    }
  ],
  "buffers": [
    {
      "byteLength": 13182768,
      "uri": "scene.bin"
    }
  ],
  "extensionsUsed": [
    "KHR_materials_specular"
  ],
  "images": [
    {
      "uri": "textures/material_0_baseColor.png"
    }
  ],
  "materials": [
    {
      "doubleSided": true,
      "extensions": {
        "KHR_materials_specular": {
          "specularColorFactor": [
            1.0,
            1.0,
            1.0
          ],
          "specularFactor": 0.3431783536585366
        }
      },
      "name": "material_0",
      "pbrMetallicRoughness": {
        "baseColorTexture": {
          "index": 0
        },
        "metallicFactor": 0.34927591463414637,
        "roughnessFactor": 0.4956173780487805
      }
    }
  ],
  "meshes": [
    {
      "name": "Object_0",
      "primitives": [
        {
          "attributes": {
            "NORMAL": 1,
            "POSITION": 0,
            "TEXCOORD_0": 2
          },
          "indices": 3,
          "material": 0,
          "mode": 4
        }
      ]
    },
    {
      "name": "Object_1",
      "primitives": [
        {
          "attributes": {
            "NORMAL": 5,
            "POSITION": 4,
            "TEXCOORD_0": 6
          },
          "indices": 7,
          "material": 0,
          "mode": 4
        }
      ]
    },
    {
      "name": "Object_2",
      "primitives": [
        {
          "attributes": {
            "NORMAL": 9,
            "POSITION": 8,
            "TEXCOORD_0": 10
          },
          "indices": 11,
          "material": 0,
          "mode": 4
        }
      ]
    },
    {
      "name": "Object_3",
      "primitives": [
        {
          "attributes": {
            "NORMAL": 13,
            "POSITION": 12,
            "TEXCOORD_0": 14
          },
          "indices": 15,
          "material": 0,
          "mode": 4
        }
      ]
    }
  ],
  "nodes": [
    {
      "children": [
        1
      ],
      "matrix": [
        1.0,
        0.0,
        0.0,
        0.0,
        0.0,
        2.220446049250313e-16,
        -1.0,
        0.0,
        0.0,
        1.0,
        2.220446049250313e-16,
        0.0,
        0.0,
        0.0,
        0.0,
        1.0
      ],
      "name": "Sketchfab_model"
    },
    {
      "children": [
        2,
        3,
        4,
        5
      ],
      "name": "IPL_EgyptianHead_HR_Geometry.obj.cleaner.materialmerger.gles"
    },
    {
      "mesh": 0,
      "name": "Object_2"
    },
    {
      "mesh": 1,
      "name": "Object_3"
    },
    {
      "mesh": 2,
      "name": "Object_4"
    },
    {
      "mesh": 3,
      "name": "Object_5"
    }
  ],
  "samplers": [
    {
      "magFilter": 9729,
      "minFilter": 9987,
      "wrapS": 10497,
      "wrapT": 10497
    }
  ],
  "scene": 0,
  "scenes": [
    {
      "name": "Sketchfab_Scene",
      "nodes": [
        0
      ]
    }
  ],
  "textures": [
    {
      "sampler": 0,
      "source": 0
    }
  ]
}
